<svg xmlns="http://www.w3.org/2000/svg" viewBox="0 0 23 23"><path d="M1 1h7v7h-7zM13 1h1v1h-1zM15 1h7v7h-7zM2 2v5h5v-5zM10 2h1v1h-1zM12 2h1v1h-1zM16 2v5h5v-5zM3 3h3v3h-3zM9 3h1v1h1v-1h1v1h1v-1h1v3h-1v-1h-3v1h3v1h-1v2h-1v-2h-1v2h-1zM17 3h3v3h-3zM13 7h1v1h-1zM1 9h1v2h-1zM3 9h5v1h-1v1h-2v-1h-2zM10 9h1v1h-1zM12 9h1v1h2v-1h5v1h2v1h-1v1h-1v-1h-1v1h1v1h-3v1h-2v-1h1v-1h-1v-1h-1v1h1v1h-1v2h-1v-2h-1v1h-1v-1h-1v1h1v1h-2v-1h-2v-1h1v-1h1v-1h1v1h1v-2h1zM2 11h1v1h-1zM4 11h1v1h2v1h-4v-1h1zM7 11h1v1h-1zM12 11v1h1v-1zM17 11v1h1v-1zM2 13h1v1h-1zM20 13h1v1h1v1h-1v1h1v2h-1v-1h-2v1h1v3h-1v1h-1v-2h1v-1h-3v1h-1v1h-2v1h-1v-2h1v-2h2v-1h1v1h2v-3h2zM17 14h1v1h-1zM1 15h7v7h-7zM12 15h1v1h-1zM14 15h2v1h-1v1h-1zM2 16v5h5v-5zM9 16h2v1h-1v3h-1zM3 17h3v3h-3zM11 17h2v1h-1v1h-1zM16 20h1v1h-1zM9 21h1v1h-1zM15 21h1v1h-1zM20 21h1v1h-1z"/></svg>